<?xml version="1.0" encoding="UTF-8"?>
<svg id="Capa_1" xmlns="http://www.w3.org/2000/svg" version="1.1" xmlns:xlink="http://www.w3.org/1999/xlink" viewBox="0 0 201 32">
  <!-- Generator: Adobe Illustrator 29.7.1, SVG Export Plug-In . SVG Version: 2.1.1 Build 8)  -->
  <defs>
    <style>
      .st0 {
        mask: url(#mask-1);
      }

      .st1 {
        fill: #ed2024;
      }

      .st2 {
        fill: #fff;
      }

      .st3 {
        mask: url(#mask);
      }

      .st4 {
        fill: none;
      }

      .st5 {
        fill: #4b5b71;
      }

      .st6 {
        clip-path: url(#clippath);
      }
    </style>
    <clipPath id="clippath">
      <rect class="st4" width="201" height="32"/>
    </clipPath>
    <mask id="mask" x="21.1" y="0" width="179.9" height="32.4" maskUnits="userSpaceOnUse">
      <g id="mask0_2039_2">
        <path class="st2" d="M201,0H21.1v32.4h179.9V0Z"/>
      </g>
    </mask>
    <mask id="mask-1" x="43" y="8.1" width="18.5" height="24.3" maskUnits="userSpaceOnUse">
      <g id="mask1_2039_2">
        <path class="st2" d="M43,8.1h18.5v24.3h-18.5V8.1Z"/>
      </g>
    </mask>
  </defs>
  <g class="st6">
    <g>
      <g class="st3">
        <g>
          <path class="st5" d="M34.3,18.5l6.7,9.4h-4.8l-4.3-6-4.3,6h-4.8l6.7-9.4-6.4-9h4.8l4.1,5.6,4.1-5.6h4.8l-6.4,9Z"/>
          <g class="st0">
            <path class="st5" d="M52.6,9c1.6,0,3,.4,4.3,1.2,1.3.8,2.3,1.9,3,3.3.8,1.4,1.1,3.2,1.1,5.3s-.4,3.8-1.1,5.3c-.8,1.4-1.8,2.5-3,3.2-1.3.7-2.7,1.1-4.3,1.1s-2.1-.3-3-.8c-.9-.5-1.7-1.1-2.3-1.9v6.3h-4.2V9.5h4.2v2.6c.4-.7,1-1.4,2-2.1.9-.7,2-1,3.3-1ZM52.1,24.7c1.3,0,2.4-.5,3.3-1.4.9-1,1.4-2.4,1.4-4.4s-.5-3.5-1.4-4.6c-.9-1.1-2-1.6-3.3-1.6s-1.7.2-2.4.7c-.7.5-1.3,1.2-1.7,2.1-.4.9-.7,2-.7,3.3,0,2,.5,3.5,1.4,4.5,1,1,2.1,1.5,3.4,1.5Z"/>
          </g>
          <path class="st5" d="M72.2,9c1.7,0,3.2.4,4.5,1.1,1.3.7,2.3,1.8,3,3.2.7,1.4,1.1,3,1.1,5v.5c0,.2,0,.4,0,.6h-13.6c.1,1.7.6,3.1,1.6,4.1.9,1,2.1,1.5,3.4,1.5s1.9-.2,2.6-.7c.7-.5,1.2-1.2,1.4-2.1h4.3c-.4,2.2-1.4,3.8-2.9,4.8-1.5,1-3.3,1.5-5.4,1.5s-3.3-.4-4.7-1.2c-1.4-.8-2.5-1.9-3.3-3.4-.8-1.4-1.2-3.1-1.2-5.1s.4-3.7,1.2-5.1c.8-1.5,1.9-2.6,3.3-3.4,1.4-.8,2.9-1.2,4.7-1.2ZM67.4,16.4h8.9c0-1.3-.5-2.3-1.2-3-.8-.7-1.7-1-2.8-1s-2.2.3-3.1,1c-.9.6-1.5,1.7-1.8,3Z"/>
          <path class="st5" d="M92.8,9.3c.5,0,.8,0,1.1,0,.3,0,.6.2.9.3v4.2c-.3,0-.7-.2-1-.2-.3,0-.7,0-1.2,0-1.3,0-2.4.5-3.3,1.4-.9.9-1.4,2.3-1.4,4.2v8.7h-4.2V9.5h4.2v3.2c.4-.9,1-1.7,1.8-2.4.8-.7,1.8-1.1,3-1.1Z"/>
          <path class="st5" d="M105.9,24.5c.3,0,.6,0,1,0,.4,0,.8-.1,1.2-.2v3.4c-.4.1-.9.2-1.4.3-.5,0-1,.1-1.5.1-1.2,0-2.3-.2-3.3-.6-.9-.4-1.7-1-2.2-1.9-.5-.9-.8-2.2-.8-3.7v-8.9h-3.6v-3.4h3.6v-4l4.2-2.1v6.1h4.5v3.4h-4.5v8.9c0,1,.3,1.7.8,2.1.5.4,1.2.6,2,.6Z"/>
          <path class="st5" d="M119.7,9c1.6,0,3,.4,4.3,1.1,1.3.7,2.3,1.8,3.1,3.3.8,1.4,1.1,3.2,1.1,5.2s-.4,3.8-1.1,5.2c-.8,1.5-1.8,2.6-3,3.4-1.3.8-2.7,1.2-4.3,1.2s-2.3-.3-3.2-.9c-.9-.6-1.6-1.3-2.1-2v2.4h-4.2V1.8h4.2v10.1c.6-.8,1.4-1.5,2.3-2,1-.5,1.9-.8,3-.8ZM119.2,24.7c1.3,0,2.4-.5,3.3-1.6.9-1.1,1.4-2.6,1.4-4.6s-.5-3.5-1.4-4.5c-.9-1-2-1.5-3.3-1.5s-2.4.5-3.4,1.5c-1,1-1.4,2.5-1.4,4.5s.2,2.4.7,3.3c.4.9,1,1.6,1.7,2.1.7.5,1.5.7,2.4.7Z"/>
          <path class="st5" d="M138.4,9c1.3,0,2.5.2,3.7.6,1.2.4,2.1,1.1,2.8,2.1.7,1,1.1,2.3,1.1,4.1v12.1h-4.1v-2.5c-.6.8-1.3,1.5-2.1,2-.8.5-2,.8-3.5.8s-1.9-.2-2.8-.6c-.9-.4-1.6-1-2.1-1.7-.5-.8-.8-1.7-.8-2.8,0-1.6.4-2.8,1.2-3.7.8-.9,1.8-1.6,3-2.1,1.3-.5,2.7-.8,4.2-.9l2.9-.3v-.6c0-1.1-.4-1.9-1.1-2.4-.7-.5-1.5-.8-2.5-.8s-1.8.3-2.5.8c-.7.5-1.2,1.3-1.3,2.2h-4c.1-1.4.5-2.5,1.2-3.5.7-.9,1.7-1.6,2.8-2.1,1.2-.5,2.4-.7,3.8-.7ZM137.3,24.9c1.3,0,2.3-.4,3.2-1.2.9-.8,1.3-1.9,1.3-3.4v-1.3l-2.9.4c-1.2.2-2.2.5-3,1-.8.5-1.2,1.3-1.2,2.2s.2,1.2.7,1.6c.5.4,1.1.6,1.9.6Z"/>
          <path class="st5" d="M158.7,24.5c.3,0,.6,0,1,0,.4,0,.8-.1,1.2-.2v3.4c-.4.1-.9.2-1.4.3-.5,0-1,.1-1.5.1-1.2,0-2.3-.2-3.3-.6-.9-.4-1.7-1-2.2-1.9-.5-.9-.8-2.2-.8-3.7v-8.9h-3.6v-3.4h3.6v-4l4.2-2.1v6.1h4.5v3.4h-4.5v8.9c0,1,.3,1.7.8,2.1.5.4,1.2.6,2,.6Z"/>
          <path class="st5" d="M179.8,15.8h-4.2c-.2-1.1-.7-1.9-1.5-2.4-.8-.5-1.7-.8-2.7-.8s-1.7.2-2.5.7c-.8.5-1.4,1.2-1.8,2.1-.4.9-.7,2-.7,3.2s.2,2.3.7,3.2c.5.9,1.1,1.6,1.8,2,.8.5,1.6.7,2.5.7s2-.3,2.8-.8c.8-.5,1.3-1.3,1.5-2.4h4.2c-.1,1.5-.6,2.8-1.4,3.8-.8,1-1.8,1.8-3,2.3-1.2.5-2.6.8-4.1.8s-3.2-.4-4.6-1.1c-1.4-.8-2.5-1.8-3.3-3.3-.8-1.4-1.3-3.1-1.3-5.1s.4-3.7,1.2-5.2c.8-1.5,1.9-2.6,3.3-3.4,1.4-.8,2.9-1.2,4.6-1.2s2.9.3,4.1.8c1.2.5,2.2,1.3,3,2.3.8,1,1.3,2.3,1.4,3.8Z"/>
          <path class="st5" d="M193,9c1.3,0,2.4.3,3.3.9.9.6,1.6,1.4,2.1,2.4.5,1,.7,2.1.7,3.4v12.2h-4.2v-11.3c0-1.1-.3-2-.9-2.8-.6-.8-1.4-1.1-2.5-1.1s-1.7.2-2.4.7c-.7.5-1.2,1.1-1.6,1.8-.4.8-.6,1.6-.6,2.5v10.1h-4.2V1.8h4.2v10.3c.3-.4.7-.9,1.2-1.3.5-.5,1.2-.9,2-1.2.8-.3,1.8-.5,2.9-.5Z"/>
        </g>
      </g>
      <path class="st1" d="M22.4,19.1c-.3-.1-.7,0-1,.2-.3.2-.6.4-.8.7-1.5,1.4-3.1,2.6-5,3.3-1.4.5-3.5,1-5,.4-1.3-.5-2.3-1.5-3-2.8-.7-1.4-1-2.9-1-4.4,0-.5,0-1,.2-1.5.5.1,1,.2,1.6.2,2.8.2,5.6-.5,7.8-2.2,1.8-1.2,3.2-3.1,3.5-5.3.3-2.2-.7-4.6-2.7-5.4-2.1-.9-4.7,0-6.5,1.3-2.9,2.1-5,5.2-6.3,8.6-.8-.2-1.6-.5-2.3-.9-.3-.2-.8-.3-.9,0,0,.3.2.5.4.7.8.6,1.5,1.2,2.3,1.7-.4,1.4-.6,2.9-.7,4.4-.2,3.3.5,6.6,3.3,8.5,3,2,7.4,1.6,10.5,0,2.2-1.2,4.1-3,5.6-5.1.4-.6,1.1-2.1,0-2.4ZM11.2,7.2c.8-.7,1.7-1.3,2.7-1.4,2,0,2.6,1.9,1.6,3.4-.6.8-1.3,1.4-2.1,1.9-1.8,1.1-3.9,1.6-5.9,1.5.8-2.1,2.2-4,3.8-5.5Z"/>
    </g>
  </g>
</svg>