<svg width="201" height="32" viewBox="0 0 201 32" fill="none" xmlns="http://www.w3.org/2000/svg">
<g clip-path="url(#clip0_2039_2)">
<rect width="201" height="32" fill="white"/>
<mask id="mask0_2039_2" style="mask-type:luminance" maskUnits="userSpaceOnUse" x="21" y="-1" width="180" height="34">
<path d="M201 -0.0205078H21.0869V32.3315H201V-0.0205078Z" fill="white"/>
</mask>
<g mask="url(#mask0_2039_2)">
<path d="M34.2996 18.4565L41.0391 27.8444H36.2097L31.9209 21.8145L27.6141 27.8444H22.8027L29.5423 18.4565L23.1091 9.50195H27.8664L31.9209 15.1347L35.9755 9.50195H40.7328L34.2996 18.4565Z" fill="#4B5B71"/>
<mask id="mask1_2039_2" style="mask-type:luminance" maskUnits="userSpaceOnUse" x="42" y="8" width="20" height="25">
<path d="M42.9995 8.06738H61.4521V32.3178H42.9995V8.06738Z" fill="white"/>
</mask>
<g mask="url(#mask1_2039_2)">
<path d="M52.5662 8.97852C54.1519 8.97852 55.5755 9.37118 56.8369 10.152C58.1074 10.9373 59.1255 12.0476 59.8823 13.4919C60.6392 14.9362 61.0176 16.6874 61.0176 18.7455C61.0176 20.8171 60.6392 22.5729 59.8823 24.0171C59.1255 25.4524 58.1074 26.5356 56.8369 27.2668C55.5755 27.9979 54.1519 28.368 52.5662 28.368C51.494 28.368 50.4939 28.1153 49.5568 27.6098C48.6288 27.0953 47.8719 26.4634 47.2863 25.7142L47.286 32H43.0693L43.0696 9.50207H47.2863V12.0837C47.6827 11.339 48.3359 10.6349 49.2505 9.97146C50.1605 9.31251 51.2687 8.97852 52.5662 8.97852ZM52.1157 24.6851C53.3996 24.6851 54.4853 24.2067 55.3773 23.2408C56.2783 22.2795 56.7288 20.8036 56.7288 18.8177C56.7288 16.8093 56.2783 15.2747 55.3773 14.214C54.4853 13.1579 53.3996 12.6253 52.1157 12.6253C51.2507 12.6253 50.4578 12.8691 49.737 13.3475C49.0162 13.8169 48.4305 14.5119 47.9891 15.4236C47.5431 16.3263 47.3223 17.4231 47.3223 18.7094C47.3223 20.7224 47.7953 22.2208 48.7459 23.2047C49.7055 24.1932 50.8272 24.6851 52.1157 24.6851Z" fill="#4B5B71"/>
</g>
<path d="M72.166 8.97852C73.896 8.97852 75.4007 9.35313 76.6891 10.0978C77.9865 10.8471 79.0002 11.9167 79.7345 13.3114C80.4643 14.697 80.8202 16.3579 80.7977 18.2942C80.7977 18.4747 80.7977 18.6552 80.7977 18.8358C80.7977 19.0073 80.7707 19.1968 80.7256 19.4135H67.1745C67.2916 21.1105 67.8232 22.4645 68.7602 23.4755C69.7063 24.4775 70.8551 24.974 72.2021 24.974C73.2337 24.974 74.1122 24.7393 74.833 24.2699C75.5538 23.7915 76.0269 23.0784 76.2566 22.1396H80.5634C80.14 24.3331 79.1669 25.9218 77.6442 26.9057C76.117 27.8806 74.3014 28.368 72.2021 28.368C70.4586 28.368 68.8954 27.9709 67.5168 27.1765C66.1473 26.3822 65.0571 25.2628 64.2552 23.8185C63.4488 22.3743 63.0479 20.6727 63.0479 18.7094C63.0479 16.7506 63.4443 15.04 64.2372 13.5822C65.0301 12.1289 66.1158 10.996 67.4988 10.1881C68.8909 9.38472 70.4451 8.97852 72.166 8.97852ZM67.3907 16.3624H76.2927C76.2206 15.0761 75.8061 14.0832 75.0493 13.3836C74.2924 12.6885 73.3644 12.3365 72.2742 12.3365C71.1074 12.3365 70.0802 12.6705 69.1927 13.3294C68.3142 13.9794 67.7151 14.9904 67.3907 16.3624Z" fill="#4B5B71"/>
<path d="M92.7527 9.32129C93.2212 9.32129 93.5996 9.35288 93.8879 9.41156C94.1762 9.47474 94.4736 9.56501 94.7889 9.68236V13.8347C94.4511 13.7534 94.1222 13.6812 93.7978 13.618C93.4735 13.5594 93.086 13.5278 92.6445 13.5278C91.3696 13.5278 90.2659 13.9926 89.3288 14.9179C88.3918 15.8341 87.9233 17.2378 87.9233 19.1244V27.8442H83.7065V9.50182H87.9233V12.7515C88.2927 11.8759 88.8963 11.086 89.7253 10.3864C90.5542 9.67785 91.5633 9.32129 92.7527 9.32129Z" fill="#4B5B71"/>
<path d="M105.889 24.5221C106.15 24.5221 106.488 24.495 106.898 24.4318C107.317 24.3732 107.7 24.2964 108.051 24.1971V27.5912C107.619 27.7131 107.159 27.8169 106.682 27.8981C106.2 27.9794 105.691 28.0245 105.15 28.0245C103.925 28.0245 102.834 27.8349 101.888 27.4468C100.951 27.0631 100.213 26.4132 99.6719 25.497C99.1313 24.5717 98.861 23.326 98.861 21.7599V12.8595H95.311V9.50153H98.861V5.5478L103.096 3.41748V9.50153H107.601V12.8595H103.096V21.7599C103.096 22.7348 103.353 23.4389 103.871 23.8722C104.398 24.3055 105.069 24.5221 105.889 24.5221Z" fill="#4B5B71"/>
<path d="M119.689 8.97826C121.248 8.97826 122.667 9.35287 123.942 10.0976C125.226 10.8468 126.248 11.9345 127.005 13.3653C127.762 14.787 128.14 16.5337 128.14 18.6008C128.14 20.6364 127.762 22.383 127.005 23.8363C126.248 25.2942 125.23 26.4135 123.96 27.1943C122.698 27.9751 121.275 28.3678 119.689 28.3678C118.437 28.3678 117.364 28.0654 116.463 27.4651C115.562 26.8513 114.878 26.1833 114.409 25.4612V27.8442H110.192V1.75684H114.409V11.8127C114.995 10.9957 115.765 10.3233 116.716 9.79067C117.675 9.24907 118.666 8.97826 119.689 8.97826ZM119.238 24.721C120.522 24.721 121.608 24.1929 122.5 23.1323C123.401 22.0761 123.852 20.5506 123.852 18.5647C123.852 16.5562 123.401 15.0713 122.5 14.1055C121.608 13.1306 120.522 12.6431 119.238 12.6431C117.95 12.6431 116.828 13.1441 115.869 14.1416C114.918 15.13 114.445 16.642 114.445 18.673C114.445 19.9639 114.666 21.0561 115.112 21.9588C115.553 22.8524 116.139 23.5385 116.86 24.0169C117.581 24.4863 118.374 24.721 119.238 24.721Z" fill="#4B5B71"/>
<path d="M138.424 8.97852C139.708 8.97852 140.929 9.18613 142.082 9.59234C143.235 10.0031 144.172 10.7071 144.893 11.7046C145.614 12.693 145.975 14.0471 145.975 15.7667V27.8445H141.884V25.3892C141.316 26.2332 140.623 26.9147 139.794 27.4293C138.974 27.9348 137.798 28.1875 136.262 28.1875C135.275 28.1875 134.343 27.9889 133.469 27.5917C132.604 27.1946 131.901 26.6168 131.36 25.8586C130.829 25.1003 130.567 24.1751 130.567 23.0784C130.567 21.5167 130.95 20.2755 131.721 19.3593C132.486 18.4341 133.505 17.748 134.766 17.3012C136.036 16.8454 137.442 16.5339 138.983 16.3624L141.92 16.0555V15.4236C141.92 14.3404 141.564 13.5461 140.857 13.0406C140.145 12.526 139.312 12.2643 138.352 12.2643C137.401 12.2643 136.554 12.5441 135.811 13.0947C135.077 13.6363 134.658 14.3675 134.55 15.2792H130.531C130.639 13.8981 131.054 12.7427 131.775 11.8129C132.504 10.8741 133.455 10.1701 134.622 9.70066C135.784 9.22224 137.055 8.97852 138.424 8.97852ZM137.343 24.9018C138.604 24.9018 139.672 24.5046 140.55 23.7102C141.438 22.9159 141.884 21.7965 141.884 20.3523V19.0524L138.947 19.4496C137.73 19.6076 136.721 19.9551 135.919 20.4967C135.113 21.0293 134.712 21.7604 134.712 22.6992C134.712 23.3266 134.951 23.8501 135.433 24.2699C135.91 24.6941 136.55 24.9018 137.343 24.9018Z" fill="#4B5B71"/>
<path d="M158.651 24.5221C158.912 24.5221 159.25 24.495 159.66 24.4318C160.079 24.3732 160.462 24.2964 160.813 24.1971V27.5912C160.381 27.7131 159.921 27.8169 159.444 27.8981C158.962 27.9794 158.453 28.0245 157.912 28.0245C156.687 28.0245 155.597 27.8349 154.651 27.4468C153.714 27.0631 152.975 26.4132 152.434 25.497C151.894 24.5717 151.623 23.326 151.623 21.7599V12.8595H148.073V9.50153H151.623V5.5478L155.858 3.41748V9.50153H160.363V12.8595H155.858V21.7599C155.858 22.7348 156.115 23.4389 156.633 23.8722C157.16 24.3055 157.831 24.5221 158.651 24.5221Z" fill="#4B5B71"/>
<path d="M179.767 15.8389H175.532C175.303 14.7692 174.803 13.9794 174.037 13.4739C173.266 12.9684 172.365 12.7156 171.334 12.7156C170.455 12.7156 169.631 12.9638 168.865 13.4558C168.108 13.9523 167.5 14.6473 167.045 15.55C166.599 16.4437 166.378 17.5088 166.378 18.7455C166.378 19.9867 166.599 21.0518 167.045 21.941C167.5 22.8211 168.108 23.4936 168.865 23.963C169.631 24.4324 170.455 24.6671 171.334 24.6671C172.424 24.6671 173.356 24.4053 174.127 23.8727C174.893 23.3446 175.388 22.5458 175.605 21.4716H179.785C179.65 22.9655 179.191 24.2293 178.398 25.2628C177.605 26.2874 176.596 27.0637 175.37 27.5917C174.145 28.1063 172.784 28.368 171.298 28.368C169.626 28.368 168.095 27.9889 166.703 27.2307C165.32 26.4724 164.207 25.3847 163.369 23.963C162.526 22.5322 162.107 20.8307 162.107 18.8538C162.107 16.8679 162.513 15.1348 163.333 13.6544C164.148 12.174 165.243 11.0276 166.612 10.2062C167.991 9.38923 169.518 8.97852 171.19 8.97852C172.703 8.97852 174.073 9.24029 175.298 9.75482C176.524 10.2603 177.533 11.0276 178.326 12.0476C179.118 13.0586 179.596 14.3224 179.767 15.8389Z" fill="#4B5B71"/>
<path d="M192.969 8.97826C194.267 8.97826 195.375 9.28517 196.303 9.89899C197.226 10.5038 197.929 11.3027 198.411 12.3001C198.902 13.3021 199.15 14.4214 199.15 15.6581V27.8442H194.915V16.5788C194.915 15.4866 194.618 14.5658 194.032 13.8166C193.442 13.0584 192.595 12.6792 191.491 12.6792C190.613 12.6792 189.82 12.9094 189.113 13.3653C188.415 13.8256 187.869 14.4304 187.473 15.1887C187.077 15.9469 186.878 16.7864 186.878 17.6981V27.8442H182.662V1.75684H186.878V12.0293C187.14 11.6096 187.532 11.1627 188.05 10.6934C188.577 10.224 189.248 9.82227 190.068 9.48376C190.883 9.14977 191.852 8.97826 192.969 8.97826Z" fill="#4B5B71"/>
</g>
<path d="M22.3948 19.1444C22.0535 19.0312 21.6798 19.1242 21.3629 19.3021C21.0501 19.476 20.782 19.7347 20.522 19.9814C19.0473 21.3602 17.3817 22.5612 15.509 23.2526C14.079 23.7823 12.0071 24.2514 10.5325 23.657C9.18375 23.1151 8.20876 22.1649 7.55471 20.8346C6.88847 19.484 6.55941 17.9596 6.6041 16.4433C6.61629 15.9378 6.67316 15.4324 6.75847 14.931C7.27034 15.0483 7.79439 15.1332 8.31845 15.1777C11.0687 15.4162 13.8921 14.6439 16.1549 13.0184C17.9058 11.7689 19.3642 9.92105 19.6892 7.7537C20.0223 5.58636 18.9742 3.14001 16.9918 2.33535C14.8955 1.48216 12.259 2.37983 10.5284 3.6495C7.62783 5.78045 5.49505 8.8212 4.25601 12.2178C3.46384 11.9994 2.69197 11.7123 1.95667 11.3484C1.63574 11.1867 1.13606 11.0856 1.01825 11.4333C0.928874 11.7002 1.18481 11.9428 1.41637 12.1005C2.22885 12.6545 2.94384 13.2691 3.76039 13.7665C3.36634 15.1898 3.12259 16.6536 3.03728 18.1294C2.85447 21.3805 3.55727 24.7568 6.37254 26.633C9.37874 28.6386 13.7459 28.2545 16.8374 26.6613C19.0758 25.5089 20.9486 23.6812 22.3907 21.5746C22.8213 20.9559 23.512 19.5043 22.3948 19.1444ZM11.1784 7.20378C11.9381 6.52042 12.8399 5.90176 13.8474 5.85324C15.8136 5.76023 16.4758 7.77392 15.4358 9.25386C14.8833 10.0343 14.1277 10.6368 13.3193 11.126C11.5278 12.2016 9.45999 12.6949 7.38815 12.6585C8.19657 10.5599 9.56155 8.64733 11.1784 7.20378Z" fill="#ED2024"/>
</g>
<defs>
<clipPath id="clip0_2039_2">
<rect width="201" height="32" fill="white"/>
</clipPath>
</defs>
</svg>
