<?xml version="1.0" encoding="UTF-8"?>
<svg data-bbox="3.438 6 292.66 55.266" height="100" viewBox="0 0 300 75" width="400" xmlns="http://www.w3.org/2000/svg" data-type="color">
    <g>
        <defs>
            <clipPath id="291f394c-480c-463a-bbbb-66afa64107cc">
                <path d="M3.438 6h13.32v13.32H3.438Zm0 0"/>
            </clipPath>
            <clipPath id="a554c4e0-a277-4b36-b306-6fbff96713c6">
                <path d="M10.098 6c-3.68 0-6.66 2.98-6.66 6.66s2.98 6.66 6.66 6.66a6.66 6.66 0 0 0 0-13.32Zm0 0"/>
            </clipPath>
        </defs>
        <path d="M61.723 15.723v6.074h-4.348v9.598h4.332l.047 11.199c.059 11.008.059 11.234.387 12.386.886 3.18 2.851 5.024 6.254 5.88.902.226 1.996.285 7.468.331l6.403.075V50.004l-3.387-.047-3.39-.043-.36-.422-.36-.418v-17.68h11.817l-.527 1.2c-1.153 2.683-1.813 6.644-1.649 9.972.254 5.246 1.918 9.446 5.055 12.73 2.637 2.774 6.043 4.618 10.164 5.49 1.848.405 6.226.57 8.293.316 6.402-.75 11.488-4.305 14.351-9.989.614-1.246 1.38-3.238 1.38-3.613 0-.18-.868-.21-5.923-.21-3.703 0-5.921.058-5.921.148 0 .374-1.891 2.128-2.762 2.55-2.172 1.078-4.961 1.184-7.332.301-1.004-.375-2.43-1.621-3.028-2.64-.406-.688-.976-2.188-.976-2.563 0-.168 2.219-.195 13.031-.195h13.047l.106-.84c.18-1.516-.047-6-.391-7.602-1.442-6.703-5.563-11.441-11.8-13.543a26.9 26.9 0 0 0-2.52-.703c-1.32-.316-1.754-.316-17.875-.36l-16.54-.062V9.652H61.724Zm44.312 16.632c1.496.387 2.594 1.137 3.387 2.293.496.72 1.082 2.055 1.262 2.848l.105.496h-13.2l.227-.855c.286-1.094.93-2.356 1.59-3.133.57-.66 1.965-1.469 2.895-1.695.883-.211 2.894-.18 3.734.046Zm0 0" fill="#222325" data-color="1"/>
        <path d="M275.555 15.723v6.074h-4.348v9.598h4.332l.047 11.277c.059 12.535.016 11.95 1.094 14.152.96 1.98 2.879 3.375 5.55 4.035.899.227 1.993.286 7.465.332l6.403.075V50.004l-3.387-.047-3.39-.043-.36-.422-.36-.418v-17.68h7.497v-9.597h-7.496V9.652h-13.047Zm0 0" fill="#222325" data-color="1"/>
        <path d="M40.098 22.023c-2.985.567-5.727 2.204-6.836 4.106l-.407.691-.042-2.144-.047-2.13h-11.98v38.688h12.73l.047-12.265c.042-11.114.074-12.328.312-13.016.39-1.172 1.008-1.922 2.012-2.398.761-.39 1.035-.438 2.293-.438 1.258 0 1.53.047 2.293.422.96.48 1.472 1.063 1.949 2.234.332.793.332.856.375 13.122l.047 12.34h12.73v-13.54c0-11.172-.043-13.765-.226-14.89-.914-5.61-3.989-9.297-8.844-10.575-1.59-.402-4.77-.523-6.406-.207Zm0 0" fill="#222325" data-color="1"/>
        <path d="M173.543 21.945c-3.148.57-6.238 2.371-7.258 4.23l-.27.497-.046-2.07-.043-2.055h-12.133v38.687h12.883l.043-12.492.047-12.476.359-.793a3.991 3.991 0 0 1 2.535-2.188c2.488-.691 4.844.207 5.742 2.188l.36.793.047 12.476.043 12.492h12.894l-.059-13.914c-.042-12.254-.09-14.035-.3-15.027-1.227-5.531-4.078-8.785-8.801-10.063-1.274-.343-4.797-.507-6.043-.285Zm0 0" fill="#222325" data-color="1"/>
        <path d="M206.277 21.887c-6.058.734-10.632 3.492-12.672 7.633-.972 1.98-1.183 2.925-1.183 5.324-.016 2.351.148 3.164.988 4.949.887 1.86 2.371 3.281 4.485 4.332 2.28 1.11 3.66 1.453 9.359 2.266 2.8.402 5.367.808 5.68.914.332.09.796.36 1.035.597.406.407.437.528.375 1.2-.164 1.695-2.008 2.507-5.324 2.34-3.176-.149-4.766-1.005-6.118-3.329-.148-.238-.492-.254-5.53-.148l-5.384.117.09 1.668c.149 2.89 1.004 5.066 2.668 6.895 1.98 2.16 4.453 3.406 8.293 4.171 1.469.297 2.113.344 5.563.344 4.109-.015 5.578-.164 8.007-.84 6.45-1.8 10.211-6.207 10.211-11.953 0-4.453-1.812-7.617-5.382-9.46-2.235-1.141-3.45-1.427-10.196-2.4-5.37-.78-5.894-.913-6.27-1.679-.523-1.02-.015-2.191 1.231-2.82.688-.36.899-.39 2.7-.39 1.695 0 2.07.046 2.816.347 1.023.418 2.144 1.469 2.566 2.398l.285.63h5.684c4.738 0 5.668-.032 5.668-.212 0-.117-.106-.75-.227-1.394-.957-5.024-3.988-8.801-8.472-10.524-2.082-.812-3.059-.945-6.899-.992-1.933-.027-3.762-.016-4.047.016Zm0 0" fill="#222325" data-color="1"/>
        <path d="M245.281 22.035c-8.457 1.23-14.008 6.524-15.715 14.98-.375 1.891-.375 6.946 0 8.82.555 2.774 1.649 5.4 3.133 7.556.883 1.277 3.117 3.48 4.453 4.379 2.102 1.425 5.07 2.593 7.961 3.105 1.817.328 5.461.434 7.395.227 7.363-.813 13.074-5.356 15.535-12.36.254-.734.465-1.347.465-1.394 0-.028-2.668-.059-5.922-.059-3.254 0-5.926.059-5.926.137 0 .058-.402.554-.883 1.094-1.5 1.632-3.316 2.367-5.894 2.367-1.559 0-2.61-.196-3.719-.719-.973-.45-2.367-1.8-2.848-2.73-.332-.66-.902-2.172-.902-2.43 0-.059 5.863-.117 13.031-.117h13.047l.106-.348c.226-.672.12-5.516-.164-7.074-.977-5.594-3.508-9.703-7.68-12.461-2.277-1.531-5.5-2.656-8.664-3.047-1.785-.207-5.055-.18-6.809.074Zm6.614 10.664c1.69.793 2.832 2.25 3.476 4.38.137.448.242.839.242.866 0 .032-2.968.047-6.597.047-5.82 0-6.602-.031-6.602-.226 0-.375.602-2.055.93-2.621.465-.797 1.62-1.938 2.297-2.282 1.152-.613 1.722-.718 3.523-.675 1.574.046 1.813.09 2.73.511Zm0 0" fill="#222325" data-color="1"/>
        <path d="M147.254 22.246c-3.07.254-5.336 1.426-6.895 3.555l-.734 1.004-.094-4.258h-11.98v38.687h12.746V50.168c0-6.418.074-11.473.152-12.07.27-1.832.957-2.7 2.531-3.164.645-.196 1.563-.243 4.32-.243h3.493V22.098l-1.078.015c-.602.012-1.711.075-2.461.133Zm0 0" fill="#222325" data-color="1"/>
        <path d="M3.992 41.89v19.344h12.895V22.547H3.992Zm0 0" fill="#222325" data-color="1"/>
        <g clip-path="url(#291f394c-480c-463a-bbbb-66afa64107cc)">
            <g clip-path="url(#a554c4e0-a277-4b36-b306-6fbff96713c6)">
                <path d="M3.438 6h13.32v13.32H3.438Zm0 0" fill="#57c074" data-color="2"/>
            </g>
        </g>
    </g>
</svg>
